HIERARCHY
ROOT Hips
{
	OFFSET 0.000000 97.167313 0.000000
	CHANNELS 6 Xposition Yposition Zposition Xrotation Yrotation Zrotation
	JOINT Spine
	{
		OFFSET 0.000000 13.784798 0.064400
		CHANNELS 3 Xrotation Yrotation Zrotation
		JOINT Spine1
		{
			OFFSET 0.000000 12.037903 0.404700
			CHANNELS 3 Xrotation Yrotation Zrotation
			JOINT Spine2
			{
				OFFSET 0.000000 17.795601 0.420200
				CHANNELS 3 Xrotation Yrotation Zrotation
				JOINT Neck
				{
					OFFSET 0.000000 39.131302 11.954600
					CHANNELS 3 Xrotation Yrotation Zrotation
					JOINT Head
					{
						OFFSET 0.000000 14.456192 15.627699
						CHANNELS 3 Xrotation Yrotation Zrotation
						JOINT HeadTop_End
						{
							OFFSET 0.000000 15.703506 7.603401
							CHANNELS 3 Xrotation Yrotation Zrotation
							End Site
							{
								OFFSET 0.000000 17.447403 0.000000
							}
						}
					}
				}
				JOINT LeftShoulder
				{
					OFFSET 17.399500 24.608795 1.168800
					CHANNELS 3 Xrotation Yrotation Zrotation
					JOINT LeftArm
					{
						OFFSET 18.980635 5.765305 1.818600
						CHANNELS 3 Xrotation Yrotation Zrotation
						JOINT LeftForeArm
						{
							OFFSET 49.290169 0.000000 0.000000
							CHANNELS 3 Xrotation Yrotation Zrotation
							JOINT LeftHand
							{
								OFFSET 31.562012 0.000000 0.000000
								CHANNELS 3 Xrotation Yrotation Zrotation
								JOINT LeftHandThumb1
								{
									OFFSET 6.133995 -4.388519 7.076070
									CHANNELS 3 Xrotation Yrotation Zrotation
									JOINT LeftHandThumb2
									{
										OFFSET 6.037666 -3.485840 3.485847
										CHANNELS 3 Xrotation Yrotation Zrotation
										JOINT LeftHandThumb3
										{
											OFFSET 6.496506 -3.750763 3.750761
											CHANNELS 3 Xrotation Yrotation Zrotation
											JOINT LeftHandThumb4
											{
												OFFSET 5.616882 -3.242905 3.242910
												CHANNELS 3 Xrotation Yrotation Zrotation
												End Site
												{
													OFFSET -1.254608 7.132141 0.375429
												}
											}
										}
									}
								}
								JOINT LeftHandPinky1
								{
									OFFSET 18.920792 -0.453171 -11.426712
									CHANNELS 3 Xrotation Yrotation Zrotation
									JOINT LeftHandPinky2
									{
										OFFSET 4.919586 0.000000 0.000000
										CHANNELS 3 Xrotation Yrotation Zrotation
										JOINT LeftHandPinky3
										{
											OFFSET 5.233047 0.000000 0.000000
											CHANNELS 3 Xrotation Yrotation Zrotation
											JOINT LeftHandPinky4
											{
												OFFSET 5.571716 0.000000 0.000000
												CHANNELS 3 Xrotation Yrotation Zrotation
												End Site
												{
													OFFSET -3.459808 4.342407 -0.466164
												}
											}
										}
									}
								}
								JOINT LeftHandRing1
								{
									OFFSET 22.726120 -0.094986 -6.500475
									CHANNELS 3 Xrotation Yrotation Zrotation
									JOINT LeftHandRing2
									{
										OFFSET 6.408615 0.000000 0.000000
										CHANNELS 3 Xrotation Yrotation Zrotation
										JOINT LeftHandRing3
										{
											OFFSET 6.150223 0.000000 0.000000
											CHANNELS 3 Xrotation Yrotation Zrotation
											JOINT LeftHandRing4
											{
												OFFSET 6.145386 0.000000 0.000000
												CHANNELS 3 Xrotation Yrotation Zrotation
												End Site
												{
													OFFSET -3.671402 4.923981 -0.202372
												}
											}
										}
									}
								}
								JOINT LeftHandMiddle1
								{
									OFFSET 23.373947 0.000000 0.000001
									CHANNELS 3 Xrotation Yrotation Zrotation
									JOINT LeftHandMiddle2
									{
										OFFSET 6.996567 0.000000 0.000000
										CHANNELS 3 Xrotation Yrotation Zrotation
										JOINT LeftHandMiddle3
										{
											OFFSET 7.015945 0.000000 0.000000
											CHANNELS 3 Xrotation Yrotation Zrotation
											JOINT LeftHandMiddle4
											{
												OFFSET 7.721573 0.000000 0.000000
												CHANNELS 3 Xrotation Yrotation Zrotation
												End Site
												{
													OFFSET -4.651108 6.158463 0.251582
												}
											}
										}
									}
								}
								JOINT LeftHandIndex1
								{
									OFFSET 21.310577 -0.490082 6.209344
									CHANNELS 3 Xrotation Yrotation Zrotation
									JOINT LeftHandIndex2
									{
										OFFSET 7.536453 0.000000 0.000000
										CHANNELS 3 Xrotation Yrotation Zrotation
										JOINT LeftHandIndex3
										{
											OFFSET 7.512344 0.000000 0.000000
											CHANNELS 3 Xrotation Yrotation Zrotation
											JOINT LeftHandIndex4
											{
												OFFSET 10.212402 0.000000 0.000001
												CHANNELS 3 Xrotation Yrotation Zrotation
												End Site
												{
													OFFSET -5.180801 8.690506 1.388433
												}
											}
										}
									}
								}
							}
						}
					}
				}
				JOINT RightShoulder
				{
					OFFSET -17.399500 24.608795 1.168800
					CHANNELS 3 Xrotation Yrotation Zrotation
					JOINT RightArm
					{
						OFFSET -18.980635 5.765305 1.818600
						CHANNELS 3 Xrotation Yrotation Zrotation
						JOINT RightForeArm
						{
							OFFSET -49.290169 0.000000 0.000000
							CHANNELS 3 Xrotation Yrotation Zrotation
							JOINT RightHand
							{
								OFFSET -31.562012 0.000000 0.000000
								CHANNELS 3 Xrotation Yrotation Zrotation
								JOINT RightHandThumb1
								{
									OFFSET -6.133995 -4.388519 7.076070
									CHANNELS 3 Xrotation Yrotation Zrotation
									JOINT RightHandThumb2
									{
										OFFSET -6.037666 -3.485840 3.485847
										CHANNELS 3 Xrotation Yrotation Zrotation
										JOINT RightHandThumb3
										{
											OFFSET -6.496506 -3.750763 3.750761
											CHANNELS 3 Xrotation Yrotation Zrotation
											JOINT RightHandThumb4
											{
												OFFSET -5.616882 -3.242905 3.242910
												CHANNELS 3 Xrotation Yrotation Zrotation
												End Site
												{
													OFFSET 1.254608 7.132141 0.375429
												}
											}
										}
									}
								}
								JOINT RightHandIndex1
								{
									OFFSET -21.310577 -0.490082 6.209344
									CHANNELS 3 Xrotation Yrotation Zrotation
									JOINT RightHandIndex2
									{
										OFFSET -7.536453 0.000000 0.000000
										CHANNELS 3 Xrotation Yrotation Zrotation
										JOINT RightHandIndex3
										{
											OFFSET -7.512344 0.000000 0.000000
											CHANNELS 3 Xrotation Yrotation Zrotation
											JOINT RightHandIndex4
											{
												OFFSET -10.212402 0.000000 0.000001
												CHANNELS 3 Xrotation Yrotation Zrotation
												End Site
												{
													OFFSET 5.180801 8.690506 1.388433
												}
											}
										}
									}
								}
								JOINT RightHandMiddle1
								{
									OFFSET -23.373947 0.000000 0.000001
									CHANNELS 3 Xrotation Yrotation Zrotation
									JOINT RightHandMiddle2
									{
										OFFSET -6.996567 0.000000 0.000000
										CHANNELS 3 Xrotation Yrotation Zrotation
										JOINT RightHandMiddle3
										{
											OFFSET -7.015945 0.000000 0.000000
											CHANNELS 3 Xrotation Yrotation Zrotation
											JOINT RightHandMiddle4
											{
												OFFSET -7.721573 0.000000 0.000000
												CHANNELS 3 Xrotation Yrotation Zrotation
												End Site
												{
													OFFSET 4.651108 6.158463 0.251582
												}
											}
										}
									}
								}
								JOINT RightHandRing1
								{
									OFFSET -22.726120 -0.094986 -6.500475
									CHANNELS 3 Xrotation Yrotation Zrotation
									JOINT RightHandRing2
									{
										OFFSET -6.408615 0.000000 0.000000
										CHANNELS 3 Xrotation Yrotation Zrotation
										JOINT RightHandRing3
										{
											OFFSET -6.150223 0.000000 0.000000
											CHANNELS 3 Xrotation Yrotation Zrotation
											JOINT RightHandRing4
											{
												OFFSET -6.145386 0.000000 0.000000
												CHANNELS 3 Xrotation Yrotation Zrotation
												End Site
												{
													OFFSET 3.671402 4.923981 -0.202372
												}
											}
										}
									}
								}
								JOINT RightHandPinky1
								{
									OFFSET -18.920792 -0.453171 -11.426712
									CHANNELS 3 Xrotation Yrotation Zrotation
									JOINT RightHandPinky2
									{
										OFFSET -4.919586 0.000000 0.000000
										CHANNELS 3 Xrotation Yrotation Zrotation
										JOINT RightHandPinky3
										{
											OFFSET -5.233047 0.000000 0.000000
											CHANNELS 3 Xrotation Yrotation Zrotation
											JOINT RightHandPinky4
											{
												OFFSET -5.571716 0.000000 0.000000
												CHANNELS 3 Xrotation Yrotation Zrotation
												End Site
												{
													OFFSET 3.459808 4.342407 -0.466164
												}
											}
										}
									}
								}
							}
						}
					}
				}
			}
		}
	}
	JOINT LeftUpLeg
	{
		OFFSET 19.899099 -7.885101 -3.429500
		CHANNELS 3 Xrotation Yrotation Zrotation
		JOINT LeftLeg
		{
			OFFSET 1.745560 -36.997807 10.304700
			CHANNELS 3 Xrotation Yrotation Zrotation
			JOINT LeftFoot
			{
				OFFSET -1.745558 -29.803308 -13.615400
				CHANNELS 3 Xrotation Yrotation Zrotation
				JOINT LeftToeBase
				{
					OFFSET 1.181900 -18.539904 15.226099
					CHANNELS 3 Xrotation Yrotation Zrotation
					JOINT LeftToe_End
					{
						OFFSET -0.863701 1.402801 16.534700
						CHANNELS 3 Xrotation Yrotation Zrotation
						End Site
						{
							OFFSET 0.000000 16.616566 0.000000
						}
					}
				}
			}
		}
	}
	JOINT RightUpLeg
	{
		OFFSET -19.899099 -7.885101 -3.429500
		CHANNELS 3 Xrotation Yrotation Zrotation
		JOINT RightLeg
		{
			OFFSET -1.745560 -36.997807 10.304700
			CHANNELS 3 Xrotation Yrotation Zrotation
			JOINT RightFoot
			{
				OFFSET 1.745558 -29.803308 -13.615400
				CHANNELS 3 Xrotation Yrotation Zrotation
				JOINT RightToeBase
				{
					OFFSET -1.181900 -18.539904 15.226099
					CHANNELS 3 Xrotation Yrotation Zrotation
					JOINT RightToe_End
					{
						OFFSET 0.863701 1.402801 16.534700
						CHANNELS 3 Xrotation Yrotation Zrotation
						End Site
						{
							OFFSET 0.000000 16.616566 0.000000
						}
					}
				}
			}
		}
	}
}
MOTION
Frames: 5
Frame Time: 0.033333
0.059016 91.186813 1.931219 -7.200468 -6.855490 3.031452 5.319964 2.118478 -2.435588 1.464033 0.754855 -0.644031 1.462533 0.766245 -0.614886 2.280433 5.388031 1.629664 3.262417 -10.648698 2.519840 0.000000 -0.000000 -0.000000 0.156797 -12.684415 -17.418811 5.694476 -1.503872 -42.123235 0.000436 -86.454253 0.000482 -124.545658 -2.343107 13.457050 -12.800138 -17.470120 4.121638 1.012367 0.758823 -1.430633 -7.340029 -0.433364 13.194477 -0.000002 -0.000001 0.000000 6.410306 8.363713 -80.414576 1.722723 4.149898 -45.074392 0.636272 2.657131 -26.928222 0.000000 0.000000 -0.000007 4.717025 8.075517 -77.582295 2.056305 4.456875 -49.517666 1.539991 3.959698 -42.490620 -0.000000 -0.000001 0.000005 2.434385 7.296046 -69.364095 3.297867 5.266345 -64.088662 0.787094 2.934905 -30.019556 0.000003 0.000000 0.000004 -3.532560 4.254353 -63.954586 3.402086 5.315509 -65.218936 1.034639 3.326096 -34.549843 -0.000002 0.000000 -0.000004 0.747238 18.499147 11.537601 10.691044 23.556236 38.362126 -0.000054 97.832385 0.000085 -34.547978 -20.181138 22.178722 20.470550 7.475577 18.843589 4.151718 -12.160888 -33.847972 -6.270068 -41.955888 -36.496153 0.000001 0.000000 -0.000000 -0.887079 1.427980 12.684513 1.917403 -3.767456 53.934336 3.058005 -4.374570 69.896796 -0.000002 -0.000001 0.000001 0.770905 -5.199595 54.618827 5.563867 -4.568240 101.238573 4.771457 -4.655774 91.407889 -0.000000 -0.000000 -0.000007 6.934477 -8.544287 63.908741 2.909300 -4.317410 67.934721 1.862850 -3.727192 53.099444 -0.000002 0.000001 -0.000001 8.373400 -8.171763 73.989930 2.173671 -3.940952 57.745390 1.041997 -2.937926 39.049865 0.000001 0.000001 0.000006 -11.094071 11.132170 7.981672 15.473725 6.146232 0.505916 4.364641 1.229741 -7.992842 -0.000019 -0.000003 -0.000005 0.000000 -0.000000 -0.000000 10.258527 -15.540205 -7.548553 20.363265 -7.234323 -2.015830 -22.399337 -8.372206 9.531658 -2.358742 -0.000010 0.000000 -0.000000 -0.000000 -0.000000 
-0.000533 90.132950 1.487685 -5.844573 -5.771899 3.009583 5.159233 1.548610 -2.120768 1.671194 0.478289 -0.503495 1.740111 0.401079 -0.507048 0.918413 5.712767 -0.219401 2.596959 -10.989430 4.394433 0.000000 0.000001 -0.000000 -0.686140 -15.435430 -15.138983 2.315480 0.168948 -47.184125 0.000120 -75.133700 0.000071 -115.594422 0.864230 6.136726 -15.646246 -12.616912 3.712877 -1.578698 4.566736 0.219872 -4.304397 5.413178 13.335722 0.000000 -0.000000 0.000003 1.879288 6.634171 -52.438852 1.168977 3.512936 -36.801889 0.250341 1.695866 -16.793036 -0.000000 -0.000001 -0.000002 0.459102 5.339534 -48.347211 1.334617 3.723610 -39.426072 0.772541 2.909609 -29.734003 -0.000003 0.000001 -0.000000 -0.102549 4.557859 -44.067325 1.778810 4.204946 -45.844438 0.287822 1.815428 -18.016895 0.000000 0.000000 0.000009 -3.825713 -0.036339 -40.777568 1.633298 4.058958 -43.825219 0.512851 2.398949 -24.130495 -0.000002 0.000001 0.000001 0.390270 20.460931 9.651557 9.063645 27.031005 38.627776 -0.000812 88.120171 0.000975 -32.450181 -11.843654 18.612105 20.518230 7.514234 18.805333 4.196422 -12.229397 -33.784257 -6.209964 -41.841069 -36.476700 0.000003 -0.000002 0.000002 -0.812980 1.691393 11.214430 1.848137 -3.716120 52.872631 3.009732 -4.356651 69.262811 -0.000000 -0.000001 -0.000001 0.749635 -5.170793 54.199610 5.527281 -4.575330 100.779564 4.733562 -4.656539 90.941032 -0.000001 0.000000 -0.000002 6.659739 -8.453364 63.406989 2.873546 -4.302769 67.459053 1.832279 -3.704079 52.627526 -0.000001 0.000002 -0.000003 8.025424 -8.110220 73.541070 2.105714 -3.897348 56.750946 1.023978 -2.915582 38.696874 -0.000000 -0.000001 0.000004 -14.891441 9.273147 8.404891 18.597680 6.528984 0.601256 3.737632 1.277314 -8.363945 -0.000637 -0.000000 -0.000000 0.000000 -0.000000 0.000000 7.647710 -14.063760 -6.377016 23.698065 -8.030329 -2.808649 -24.101352 -10.538036 8.930039 -2.467744 0.000020 0.000002 -0.000000 -0.000002 0.000000 
0.150481 87.635818 0.420403 -3.673683 -3.998061 2.650682 5.825989 0.008188 -1.269880 2.483605 -0.253278 -0.127506 2.672109 -0.548777 -0.209771 -2.228819 6.389075 -2.345536 -3.715520 -10.773531 6.255394 0.000000 -0.000001 0.000000 -1.384336 -18.436139 -12.763592 -3.580633 2.789906 -50.272651 0.000062 -64.561004 0.000075 -107.965900 1.081777 -1.699785 -18.410034 -8.104691 3.754738 -4.199133 7.952399 2.107300 -1.479063 11.018506 12.979745 -0.000000 0.000003 0.000000 -0.473513 2.619803 -26.150103 0.733527 2.840286 -28.956249 0.045850 0.732337 -7.165295 -0.000000 0.000001 -0.000004 -1.026779 0.553226 -20.916725 0.778725 2.920384 -29.855508 0.275323 1.776486 -17.617524 -0.000001 -0.000000 0.000008 -0.829766 0.947050 -20.193768 0.712476 2.801958 -28.528438 0.039122 0.676640 -6.617892 0.000000 0.000001 0.000001 -2.340443 -4.011408 -18.664595 0.486960 2.340352 -23.504470 0.180118 1.442990 -14.230041 -0.000003 0.000002 -0.000003 0.155990 22.625862 7.645639 3.594420 30.731101 39.389103 0.000151 79.109573 -0.000143 -28.981572 -5.717316 15.384222 20.658670 7.627755 18.692689 4.328847 -12.429932 -33.595887 -6.034477 -41.503259 -36.420683 0.000001 -0.000001 0.000001 -0.743516 1.964214 9.885717 1.785508 -3.667998 51.900244 2.966464 -4.340069 68.692073 0.000002 0.000002 -0.000001 0.732137 -5.146743 53.851602 5.490837 -4.582101 100.323014 4.694141 -4.657021 90.455419 0.000001 0.000000 -0.000001 6.384064 -8.351491 62.969741 2.843150 -4.290048 67.052889 1.808114 -3.685523 52.252672 -0.000001 0.000001 -0.000003 7.672298 -8.038969 73.126915 2.044028 -3.856296 55.838647 1.014384 -2.903558 38.507695 -0.000000 0.000000 -0.000003 -22.565625 6.276772 9.129005 25.696217 6.811612 0.745343 2.323913 1.298204 -8.854720 -0.301830 -0.000006 0.000001 -0.000000 -0.000000 0.000000 1.213400 -11.846285 -3.660897 32.473803 -8.574555 -3.614741 -28.256552 -14.889071 3.279382 -3.579154 0.000014 0.000000 0.000000 0.000000 -0.000001 
0.315813 83.756020 -0.938413 -1.139900 -1.769734 2.196973 7.699564 -2.048035 -0.251130 4.083266 -1.205244 0.389852 4.301692 -1.782963 0.198174 -6.254290 7.803444 -3.981100 -10.597478 -10.773227 6.858168 -0.000000 0.000001 -0.000000 -1.857855 -21.583633 -10.370236 -10.006596 6.622796 -50.472578 0.000032 -59.050339 0.000019 -102.433180 -1.687190 -7.149018 -20.027634 -5.368348 4.020985 -5.777753 9.889380 3.419130 0.254179 14.409944 12.557350 -0.000000 0.000001 0.000003 -0.533139 -0.208799 -10.999290 0.536135 2.450230 -24.681136 0.002937 0.185587 -1.811252 -0.000000 0.000002 -0.000005 -0.367381 -2.482496 -5.118469 0.533353 2.444195 -24.616051 0.103933 1.099754 -10.796961 -0.000002 -0.000001 0.000003 -0.361903 -1.219717 -6.447425 0.310197 1.882748 -18.709792 0.000076 0.028559 -0.278725 -0.000001 0.000000 0.000004 -0.724869 -5.956737 -5.719098 0.123052 1.195660 -11.751465 0.067056 0.884837 -8.668176 -0.000000 0.000005 0.000002 0.069470 24.878184 5.621434 -4.670393 33.325408 39.641373 0.000106 73.362311 -0.000097 -24.705802 -2.368400 11.863158 20.888146 7.812175 18.508723 4.547559 -12.754088 -33.285899 -5.752353 -40.952015 -36.332928 -0.000001 0.000001 0.000002 -0.678323 2.245249 8.693280 1.729161 -3.623156 51.014044 2.927932 -4.324870 68.182186 -0.000003 -0.000003 -0.000002 0.718194 -5.127342 53.571954 5.454411 -4.588571 99.867433 4.653299 -4.657159 89.952423 0.000001 -0.000001 -0.000002 6.116719 -8.244408 62.595248 2.817767 -4.279253 66.713518 1.790040 -3.671502 51.970940 -0.000003 0.000004 0.000000 7.313197 -7.958281 72.746439 1.988276 -3.817950 55.005699 1.012736 -2.901498 38.475248 -0.000001 0.000002 0.000004 -33.363866 2.602658 9.464095 35.382832 6.262448 1.064317 2.448290 1.311687 -9.618680 -2.297970 0.000007 0.000002 -0.000000 0.000000 0.000000 -9.276182 -9.473275 -3.322272 46.490758 -8.726589 -2.993304 -29.113019 -19.077162 2.039963 -9.680827 0.000002 0.000001 -0.000000 0.000002 0.000000 
0.192510 79.213348 -2.177940 1.583272 -0.837670 2.356401 9.211709 -3.359482 -0.133284 5.981171 -1.932024 0.781435 5.998058 -2.788207 0.451992 -10.200611 9.250100 -5.142859 -15.439217 -10.707236 7.343657 -0.000000 0.000000 -0.000000 -2.053885 -24.756359 -8.018954 -15.019410 11.990897 -48.541950 0.000034 -59.228272 0.000034 -98.006801 -5.630169 -8.639470 -21.032135 -3.614615 4.298226 -6.762147 11.087503 4.332047 1.390961 16.571301 12.207407 -0.000001 -0.000001 0.000002 -0.046194 -1.963450 -1.664179 0.441126 2.232145 -22.355800 0.001300 -0.123204 1.202131 0.000002 0.000001 0.000001 0.606257 -4.237817 4.576059 0.417789 2.174543 -21.748485 0.042450 0.704781 -6.894492 0.000001 0.000002 0.000005 0.240554 -2.476368 1.903468 0.148717 1.312959 -12.923981 0.009604 -0.335854 3.279162 0.000002 0.000001 0.000006 0.500945 -6.953442 2.273096 0.018822 0.469774 -4.589084 0.026925 0.561635 -5.489245 -0.000000 -0.000000 -0.000001 0.126235 27.092623 3.676830 -14.566758 35.217777 40.304680 0.000019 69.143241 -0.000021 -20.640412 -0.913171 8.827768 21.203327 8.063364 18.256191 4.852769 -13.192200 -32.855740 -5.374024 -40.196421 -36.219680 0.000004 0.000000 0.000002 -0.617256 2.533118 7.632099 1.678679 -3.581837 50.210876 2.893978 -4.311162 67.731004 -0.000003 -0.000003 -0.000002 0.707574 -5.112438 53.357892 5.418045 -4.594723 99.413287 4.611158 -4.656945 89.433295 -0.000000 0.000001 -0.000008 5.852987 -8.130936 62.280896 2.797242 -4.270391 66.438288 1.777738 -3.661847 51.778404 -0.000002 0.000004 -0.000003 6.948638 -7.868832 72.398769 1.938159 -3.782440 54.249392 1.018669 -2.908930 38.592481 -0.000003 0.000003 -0.000001 -44.338429 0.739873 9.423819 44.468899 4.606764 1.567125 3.539359 1.835180 -10.487388 -4.920491 -0.000000 0.000002 -0.000000 -0.000000 -0.000000 -22.404914 -6.181206 -6.240431 61.667285 -7.766057 -1.465287 -25.134657 -19.193573 6.053078 -18.189608 -0.000002 0.000001 0.000000 0.000001 0.000000 
